<svg width="200" height="500" viewBox="0 0 200 500" fill="none" xmlns="http://www.w3.org/2000/svg">
<path d="M13.2733 485.503C15.973 489.403 19.7975 491.353 24.7469 491.353H25.1969C29.3963 491.353 33.5958 486.853 37.7953 477.854C41.9947 468.855 45.8943 456.557 49.4938 440.959C53.0934 425.361 56.4679 409.688 59.6175 393.94C62.7672 378.192 65.9168 361.169 69.0664 342.871C69.5163 339.722 69.8913 337.397 70.1912 335.897C80.9899 272.155 92.6884 213.062 105.287 158.619C117.885 104.176 127.034 68.7805 132.733 52.4325C133.633 49.7329 134.383 47.4831 134.983 45.6834C135.583 43.8836 136.858 40.584 138.808 35.7846C140.757 30.9852 142.782 26.7857 144.882 23.1862C146.982 19.5866 149.531 15.9121 152.531 12.1626C155.531 8.41302 158.83 5.4134 162.43 3.16368C166.029 0.913961 169.854 -0.135908 173.903 0.0140733C182.302 0.0140733 188.601 2.63875 192.801 7.88809C197 13.1374 199.4 19.1367 200 25.8858C200 29.6354 199.1 32.635 197.3 34.8847C195.501 37.1344 193.776 38.5593 192.126 39.1592C190.476 39.7591 188.826 39.9841 187.177 39.8341C184.027 39.8341 181.177 38.7092 178.628 36.4595C176.078 34.2098 174.803 31.1352 174.803 27.2357C174.803 20.0366 178.778 15.7621 186.727 14.4123L186.052 13.5124C185.602 13.0624 185.002 12.5375 184.252 11.9376C183.502 11.3377 182.902 10.8877 182.452 10.5878C180.202 9.08794 177.728 8.33803 175.028 8.33803C172.928 8.33803 170.979 9.23792 169.179 11.0377C167.379 12.8375 164.979 17.0369 161.98 23.6361C158.98 30.2353 156.055 38.9342 153.206 49.7329C150.356 60.5315 146.832 75.7546 142.632 95.4021C138.433 115.05 134.233 138.147 130.034 164.693C121.185 214.937 111.961 262.406 102.362 307.101C92.7634 351.795 85.2643 384.191 79.865 404.289C74.4657 424.386 70.3412 438.784 67.4916 447.483C55.943 482.429 41.6948 499.902 24.7469 499.902C18.7477 499.902 13.2733 497.577 8.32396 492.927C3.37458 488.278 0.599925 481.904 0 473.805C0 468.555 1.42482 464.956 4.27447 463.006C7.12411 461.056 9.97375 460.082 12.8234 460.082C15.973 460.082 18.8226 461.206 21.3723 463.456C23.922 465.706 25.1969 468.78 25.1969 472.68C25.1969 479.879 21.2223 484.154 13.2733 485.503Z" fill="black"/>
</svg>
