<svg width="200" height="211" viewBox="0 0 200 211" fill="none" xmlns="http://www.w3.org/2000/svg">
<path d="M0.750188 0.300069C1.05026 0.100019 31.3078 -5.96046e-06 91.5229 -5.96046e-06H181.845L190.548 20.2551C196.449 34.0585 199.6 41.3603 200 42.1605H193.999L192.948 40.06C190.848 35.959 188.047 32.058 184.546 28.3571C179.545 23.5559 173.994 19.7049 167.892 16.8042C161.79 13.9035 154.739 11.7529 146.737 10.3526C138.735 8.95223 131.183 8.10202 124.081 7.80194C116.979 7.50187 107.827 7.30182 96.6242 7.20179H77.8695H73.2183H29.4074L30.6077 8.85221C76.9192 72.168 100.175 104.126 100.375 104.726C100.475 104.926 100.475 105.226 100.375 105.626C100.075 105.926 86.8717 121.03 60.7652 150.938L21.1553 195.949C21.1553 196.049 31.7079 196.099 52.8132 196.099C58.0145 196.099 65.0663 196.099 73.9685 196.099C82.8707 196.099 89.2723 196.149 93.1733 196.249C106.777 196.249 117.779 195.999 126.182 195.499C134.584 194.999 142.936 193.948 151.238 192.348C159.54 190.748 166.592 188.297 172.393 184.996C178.195 181.695 183.346 177.344 187.847 171.943C189.947 169.342 191.998 165.741 193.999 161.14H200C200 161.24 199.65 162.291 198.95 164.291C198.25 166.292 196.999 169.542 195.199 174.043C193.398 178.545 191.848 182.746 190.548 186.647L181.845 209.902L91.6729 210.052C31.4579 210.052 1.2003 209.952 0.900225 209.752C0.300075 209.552 0 209.102 0 208.402C0 208.202 0.100025 207.902 0.300075 207.502L80.2701 115.979C80.2701 115.879 78.6197 113.628 75.3188 109.227C72.018 104.826 66.7667 97.6244 59.5649 87.6219C52.3631 77.6194 45.8615 68.7172 40.06 60.9152L0.150038 6.15153L0 3.90097C0 1.80044 0.250063 0.600144 0.750188 0.300069Z" fill="black"/>
</svg>
