<svg width="360" height="335" viewBox="0 0 360 335" fill="none" xmlns="http://www.w3.org/2000/svg">
<path d="M12.5667 113.101C16.0164 92.4025 29.3224 68.501 52.4846 41.3963C75.6468 14.2916 104.23 0.492821 138.234 7.62939e-06C155.483 7.62939e-06 171.253 4.43533 185.544 13.306C199.836 22.1766 210.431 33.2649 217.331 46.5708C238.029 15.5236 262.916 7.62939e-06 291.992 7.62939e-06C310.226 7.62939e-06 325.996 5.42095 339.302 16.2628C352.608 27.1047 359.507 41.6427 360 59.8768C360 74.1684 356.55 85.7495 349.651 94.6201C342.752 103.491 336.099 108.912 329.692 110.883C323.285 112.854 317.618 113.84 312.69 113.84C303.326 113.84 295.688 111.129 289.774 105.708C283.86 100.287 280.903 93.1417 280.903 84.271C280.903 61.6016 293.224 46.078 317.864 37.7002C312.444 31.2936 302.587 28.0904 288.296 28.0904C281.889 28.0904 277.207 28.5832 274.251 29.5688C255.524 37.4538 241.725 53.7166 232.854 78.3573C203.285 187.269 188.501 250.842 188.501 269.076C188.501 282.875 192.444 292.731 200.329 298.645C208.214 304.559 216.838 307.515 226.201 307.515C244.435 307.515 262.423 299.384 280.164 283.121C297.906 266.858 309.979 246.899 316.386 223.244C317.864 218.316 319.343 215.606 320.821 215.113C322.3 214.62 326.242 214.127 332.649 213.634H335.606C342.998 213.634 346.694 215.606 346.694 219.548C346.694 220.041 346.201 222.752 345.216 227.68C337.331 255.77 322.053 280.657 299.384 302.341C276.715 324.025 250.349 334.867 220.287 334.867C185.791 334.867 159.671 319.343 141.93 288.296C121.725 318.85 98.5626 334.127 72.4435 334.127H68.0082C43.8604 334.127 26.6119 327.721 16.2628 314.908C5.91376 302.094 0.492813 288.542 0 274.251C0 258.48 4.68172 245.667 14.0452 235.811C23.4086 225.955 34.4969 221.027 47.3101 221.027C68.501 221.027 79.0965 231.376 79.0965 252.074C79.0965 261.93 76.1396 270.554 70.2259 277.947C64.3121 285.339 58.6448 290.267 53.2238 292.731C47.8029 295.195 44.5996 296.427 43.614 296.427L41.3963 297.166C41.3963 297.659 42.8747 298.645 45.8316 300.123C48.7885 301.602 52.731 303.326 57.6591 305.298C62.5873 307.269 67.269 308.008 71.7043 307.515C89.4456 307.515 104.723 296.427 117.536 274.251C121.971 266.365 127.639 249.61 134.538 223.984C141.437 198.357 148.337 171.745 155.236 144.148C162.136 116.55 166.078 100.287 167.064 95.3593C169.528 82.0534 170.76 72.4435 170.76 66.5298C170.76 52.731 167.064 42.8747 159.671 36.961C152.279 31.0472 143.901 28.0904 134.538 28.0904C114.825 28.0904 96.345 35.9754 79.0965 51.7454C61.848 67.5154 49.7741 87.7207 42.8747 112.361C41.8891 116.797 40.6571 119.261 39.1786 119.754C37.7002 120.246 33.7577 120.739 27.3511 121.232H17.0021C14.0452 118.275 12.5667 115.565 12.5667 113.101Z" fill="black"/>
</svg>
