<svg width="200" height="426" viewBox="0 0 200 426" fill="none" xmlns="http://www.w3.org/2000/svg">
<path d="M118.033 28.5714C118.657 9.52381 123.029 4.05312e-06 131.148 4.05312e-06C136.768 4.05312e-06 139.578 2.65418 139.578 7.96253C139.578 9.52381 139.11 13.1148 138.173 18.7354C137.237 24.356 136.768 29.1959 136.768 33.2553C136.768 36.3778 136.924 38.7198 137.237 40.281C137.549 41.8423 137.705 42.9352 137.705 43.5597C138.017 43.2475 138.486 43.0913 139.11 43.0913C139.735 42.4668 141.764 41.8423 145.199 41.2178C148.634 40.5933 151.756 40.281 154.567 40.281L159.251 39.8127H163.934C187.978 39.8127 200 44.9649 200 55.2693C198.751 67.1351 185.48 73.3802 160.187 74.0047H153.63C143.013 74.0047 134.895 71.1944 129.274 65.5738L125.059 68.3841C101.327 84.6214 80.0937 109.602 61.3583 143.326C42.623 177.049 33.0991 209.524 32.7869 240.749C32.7869 246.682 33.0991 252.147 33.7237 257.143C34.3482 262.139 35.7533 266.511 37.9391 270.258C40.1249 274.005 41.9984 277.596 43.5597 281.03C45.121 284.465 47.619 287.276 51.0539 289.461C54.4887 291.647 57.299 293.833 59.4848 296.019C61.6706 298.205 64.9493 299.922 69.3208 301.171C73.6924 302.42 76.9711 303.669 79.1569 304.918C81.3427 306.167 84.7775 307.26 89.4614 308.197C94.1452 309.134 97.4239 310.226 99.2974 311.475L130.211 322.248C151.132 330.367 161.593 345.355 161.593 367.213C161.593 379.391 157.689 390.945 149.883 401.874C142.077 412.803 132.084 420.297 119.906 424.356C117.408 424.98 113.349 425.293 107.728 425.293C99.2974 425.293 91.6472 424.044 84.7775 421.546C80.0937 420.297 75.0976 418.111 69.7892 414.988C64.4809 411.866 61.2022 409.524 59.9532 407.963C58.3919 405.464 58.548 402.498 60.4215 399.063C62.6073 396.253 65.4176 394.848 68.8525 394.848C70.1015 394.848 74.7853 397.034 82.904 401.405C91.0226 405.777 100.703 408.119 111.944 408.431C116.628 407.806 120.843 405.308 124.59 400.937C128.337 396.565 130.211 391.101 130.211 384.543C130.211 376.425 127.088 369.867 120.843 364.871C114.598 359.875 106.479 356.128 96.4871 353.63C86.4949 351.132 76.0344 347.697 65.1054 343.326C54.1764 338.954 43.7158 333.802 33.7237 327.869C23.7315 321.936 15.7689 312.881 9.83607 300.703C3.9032 288.525 0.624512 273.224 0 254.801C0 215.144 12.0219 176.112 36.0656 137.705C60.1093 99.2974 86.9633 71.1944 116.628 53.3958L120.843 51.0539C118.97 45.4333 118.033 37.9391 118.033 28.5714Z" fill="black"/>
</svg>
